<?xml version="1.0" encoding="UTF-8"?>
<svg xmlns="http://www.w3.org/2000/svg" viewBox="0 0 24 24" width="24" height="24" fill="none" stroke="#ffffff" stroke-width="1.1" stroke-linecap="round" stroke-linejoin="round">
  <path fill="#ffffff" stroke="none" d="M 3.85 10.6 V 18.35 c 0 0.78 0.63 1.4 1.4 1.4 h 13.5 c 0.78 0 1.4 -0.63 1.4 -1.4 v -6.95 c 0 -0.78 -0.63 -1.4 -1.4 -1.4 h -6.05 c -0.32 0 -0.62 -0.17 -0.78 -0.45 l -1.55 -2.65 c -0.2 -0.35 -0.58 -0.56 -0.98 -0.56 H 5.25 c -0.78 0 -1.4 0.63 -1.4 1.4 v 1.75 Z"/>
  <path d="M 14.85 13.9 c 0 2.05 1.65 3.7 3.7 3.7 M 17.95 16.35 l 0.85 1.35 1.2 -0.95"/>
</svg>
